<svg viewBox="0 0 23 27" width="23" height="27" fill="none" xmlns="http://www.w3.org/2000/svg">
<path opacity="1" d="M20.3747 4.1841L20.7902 4.19132C21.011 4.19481 21.2234 4.27664 21.3895 4.42221C21.5556 4.56777 21.6646 4.76761 21.6971 4.98607L22.2527 8.72303C22.2726 8.85681 22.2631 8.99331 22.2249 9.12304C22.1867 9.25277 22.1207 9.37264 22.0315 9.4743C21.9423 9.57596 21.832 9.65698 21.7084 9.71174C21.5847 9.7665 21.4506 9.79368 21.3154 9.7914L19.879 9.76644L18.4662 25.65C18.4452 25.8847 18.336 26.1026 18.1608 26.26C17.9855 26.4174 17.7571 26.5026 17.5215 26.4984L4.36067 26.2698C4.12479 26.2663 3.89901 26.1735 3.72891 26.01C3.5588 25.8466 3.45703 25.6247 3.44414 25.3891L2.58761 9.4661L1.15676 9.44125C1.02154 9.43883 0.888464 9.40701 0.766779 9.34799C0.645094 9.28897 0.537717 9.20417 0.452107 9.09947C0.366498 8.99477 0.304709 8.87269 0.271032 8.74171C0.237355 8.61072 0.232598 8.47398 0.257091 8.34097L0.942224 4.62557C0.982222 4.40836 1.09808 4.21243 1.26913 4.07272C1.44018 3.93301 1.6553 3.85861 1.87612 3.86278L2.28413 3.86987L2.13589 1.13891C2.12889 1.01105 2.14832 0.883121 2.19297 0.763108C2.23762 0.643095 2.30652 0.533575 2.39539 0.441383C2.48426 0.349191 2.59117 0.276307 2.70947 0.22728C2.82776 0.178254 2.95489 0.154139 3.08291 0.156439L19.7054 0.445167C19.8334 0.447315 19.9597 0.475831 20.0762 0.528935C20.1927 0.58204 20.297 0.658593 20.3826 0.753816C20.4682 0.849039 20.5333 0.960886 20.5738 1.08238C20.6142 1.20387 20.6292 1.33239 20.6177 1.45993L20.3747 4.1841ZM18.5079 4.15167L18.6726 2.29088L4.05103 2.03691L4.15095 3.9023L18.5079 4.15167ZM2.48583 7.60068L20.2485 7.90921L19.9698 6.04072L2.63184 5.73956L2.28835 7.59725L2.48583 7.60068ZM4.45443 9.49853L5.25937 24.4217L16.6876 24.6202L18.0103 9.73399L4.45443 9.49853Z" fill="#828282"/>
</svg>
