<svg viewBox="0 0 27 27" xmlns="http://www.w3.org/2000/svg" fill-rule="evenodd" clip-rule="evenodd" stroke-linejoin="round" stroke-miterlimit="1.414">
<path opacity="1" d="
M22.3747  4.1841
L22.7902  4.19132
C23.011   4.19481  23.2234  4.27664 23.3895  4.42221
C23.5556  4.56777  23.6646  4.76761 23.6971  4.98607
L24.2527  8.72303
C24.2726  8.85681  24.2631  8.99331 24.2249  9.12304
C24.1867  9.25277  24.1207  9.37264 24.0315  9.4743
C23.9423  9.57596  23.832   9.65698 23.7084  9.71174
C23.5847  9.7665   23.4506  9.79368 23.3154  9.7914
L21.879   9.76644
L20.4662  25.65
C20.4452  25.8847  20.336   26.1026 20.1608  26.26
C19.9855  26.4174  19.7571  26.5026 19.5215  26.4984
L6.36067  26.2698
C6.12479  26.2663  5.89901  26.1735 5.72891  26.01
C5.5588   25.8466  5.45703  25.6247 5.44414  25.3891
L4.58761  9.4661
L3.15676  9.44125
C3.02154  9.43883  2.888464 9.40701 2.766779 9.34799
C2.645094 9.28897  2.537717 9.20417 2.452107 9.09947
C2.366498 8.99477  2.304709 8.87269 2.271032 8.74171
C2.237355 8.61072  2.232598 8.47398 2.257091 8.34097
L2.942224 4.62557
C2.982222 4.40836  3.09808  4.21243 3.26913  4.07272
C3.44018  3.93301  3.6553   3.85861 3.87612  3.86278
L4.28413  3.86987
L4.13589  1.13891
C4.12889  1.01105  4.14832 0.883121 4.19297  0.763108
C4.23762  0.643095 4.30652 0.533575 4.39539  0.441383
C4.48426  0.349191 4.59117 0.276307 4.70947  0.22728
C4.82776  0.178254 4.95489 0.154139 5.08291  0.156439
L21.7054  0.445167
C21.8334  0.447315 21.9597 0.475831 22.0762  0.528935
C22.1927  0.58204  22.297  0.658593 22.3826  0.753816
C22.4682  0.849039 22.5333 0.960886 22.5738  1.08238
C22.6142  1.20387  22.6292 1.33239  22.6177  1.45993
L22.3747  4.1841
Z
M20.5079  4.15167
L20.6726  2.29088
L6.05103  2.03691
L6.15095  3.9023
L20.5079  4.15167
Z
M4.48583  7.60068
L22.2485  7.90921
L21.9698  6.04072
L4.63184  5.73956
L4.28835  7.59725
L4.48583  7.60068
Z
M6.45443  9.49853
L7.25937  24.4217
L18.6876  24.6202
L20.0103  9.73399
L6.45443  9.49853
Z
" fill="#828282"/>
</svg>
